<svg xmlns="http://www.w3.org/2000/svg" viewBox="0 0 355.19 377.03"><defs><style>.cls-1{fill:#fff;}.cls-2{fill:#aa0a00;}</style></defs><g id="Слой_2" data-name="Слой 2"><path class="cls-1" d="M186.68,249.16" transform="translate(-90.58 -61.15)"/><path class="cls-1" d="M165.82,206.93" transform="translate(-90.58 -61.15)"/><path class="cls-1" d="M303.66,92.29" transform="translate(-90.58 -61.15)"/><path class="cls-1" d="M94.42,190.45c-4.18,3.41,3.9,25.75,19.49,41,27.91,27.23,69.62,21.62,76,16.28a35.06,35.06,0,0,1,8.81-5.63,34.41,34.41,0,0,1,5.73-2A167.7,167.7,0,0,1,148,224.24C115.38,208.35,99,186.69,94.42,190.45Z" transform="translate(-90.58 -61.15)"/><path class="cls-1" d="M128.82,178.28" transform="translate(-90.58 -61.15)"/><path class="cls-1" d="M119.21,163c22.72,36,47,55.71,55.14,62a157.3,157.3,0,0,0,20.71,13.67c7.4,4.05,9.38,4.67,9.26,5.08-.63,2.07-54.87-1.22-89.53-36.78C99.24,191,94.58,175.67,93,169.49c-4.56-18.37-2.42-40.17,3.41-41.49C101,127,105.12,140.68,119.21,163Z" transform="translate(-90.58 -61.15)"/><path class="cls-1" d="M155.34,117.21c.35,20.93.91,42.5,11,66.77,4.14,9.93,10.11,18.86,16.86,29.56,8.12,12.86,15.61,23.1,21.09,30.21a101.58,101.58,0,0,1-12.23-3.94c-39.91-15.71-74.7-58.63-76-105.47-.72-25.82,8.41-42.76,11.44-47.95,7.13-12.17,20.64-27.73,27.12-24.9C160.79,64.19,154.73,81,155.34,117.21Z" transform="translate(-90.58 -61.15)"/><path class="cls-1" d="M222.21,164.21a316.33,316.33,0,0,1-15.54,78.49,198.65,198.65,0,0,0,17.11-16.54c14.06-15.29,25.17-27.38,30.43-46.34,4.78-17.24,2.45-32,1.37-38.42a85.4,85.4,0,0,0-8.92-26.6c-2.07-3.76-12.85-23.39-19.29-21.67C219.7,95.18,224.82,125.7,222.21,164.21Z" transform="translate(-90.58 -61.15)"/><path class="cls-1" d="M246.65,191.9a166.09,166.09,0,0,1-40,50.8c3.16-1.16,8-2.94,13.86-5.14,4.17-1.56,11.64-4.37,13.08-4.93,10.72-4.21,22.58-15.8,29-26.46,16.36-27.11,6.88-63.49,2.26-63.82C260.81,142.06,260.94,163.45,246.65,191.9Z" transform="translate(-90.58 -61.15)"/><path class="cls-1" d="M190.14,120c9.71,26.47,19,66.61,13.94,123.33a51.64,51.64,0,0,0,13.54-8.2c26.78-22.64,22.32-66,21.27-76.11a116,116,0,0,0-13.07-42.73,122.25,122.25,0,0,0-28-33.84c-7.12-6-17.55-14.84-21.47-12.16C170.51,74.27,183.1,100.85,190.14,120Z" transform="translate(-90.58 -61.15)"/><path class="cls-1" d="M168.11,414.49" transform="translate(-90.58 -61.15)"/><path class="cls-1" d="M160.65,353.37" transform="translate(-90.58 -61.15)"/><path class="cls-1" d="M216.38,415.22" transform="translate(-90.58 -61.15)"/><path class="cls-1" d="M237.35,424.3" transform="translate(-90.58 -61.15)"/><path class="cls-1" d="M176.44,368c-5.7-3-23.62-12.46-22.91-14.24a.33.33,0,0,1,0-.06c1.26-1.87,5.84-6.61,7.59-5.5.83.51.58,2,.67,2.73,1.2,9.56,86.09,13.48,100.46,26.79a15.42,15.42,0,0,1,4.79,8.16c.75,4.89-1.9,9.48-3.47,11.22C253.31,408.47,209.52,385.4,176.44,368Z" transform="translate(-90.58 -61.15)"/><path class="cls-1" d="M173.08,410.08a84.08,84.08,0,0,1-12.72-17.41,75.82,75.82,0,0,1-3.74-7.91c-5-12.48-7.9-29.57-3.09-31,4.52-1.38,10.17,12.47,29.89,29.65,31.1,27.09,47.37,35.31,47.37,35.31,2.33,1.33,8.67,4.88,8.51,9.35-.13,3.75-4.77,6.39-6.33,7.27-3,1.72-9.63,4.48-21.44,1.66C194.37,432.88,183.39,421.13,173.08,410.08Z" transform="translate(-90.58 -61.15)"/><path class="cls-1" d="M153.53,353.73c2.63-3.4,16.38,9.9,49,21.76,22.13,8.06,46,12.92,62.75,29.06,4.33,4.17,7.93,8.86,6.94,13.3-1.27,5.7-9.26,8.48-13.41,9.24a25.6,25.6,0,0,1-11.5-.6c-35.83-10.3-60.1-31.8-60.1-31.8C172,381.26,150.15,358.1,153.53,353.73Z" transform="translate(-90.58 -61.15)"/><path class="cls-1" d="M194,242.15c3.36-.88,10.92-3,23.6-7,10.22-3.24,15.81-4.61,23.11-8.49a55.72,55.72,0,0,0,13.1-9c4.85-4.57,5.24-6.77,9.88-11.77,1.81-2,7.38-8.12,15-11.65,11.45-5.27,22.24-3.36,27-2.46,4.18.8,20.71,3.92,29.62,18a46.13,46.13,0,0,1,5.74,14.54c.87,3.94.9,15.2.91,15.38v.09L445.76,305c-59.45-27.4-103-47-107.34-48.7-4.54-1.8-7.19-1.28-10-.91-14.74,1.95-17.3,18.31-34.92,35.78a102.88,102.88,0,0,1-33.66,21.74c-12.85,5.07-16.34,3-36.87,7-26.29,5.2-40.45,8-51,18.4-4.17,4.12-16,17.57-14.84,47.67a98.54,98.54,0,0,1-21.25-48.34c-1.26-9-4.49-34.62,10.51-59C157.66,260.28,176.68,246.71,194,242.15Z" transform="translate(-90.58 -61.15)"/><path class="cls-1" d="M94.1,219.72c17.63,7.36,33.18,13.44,46,18.27,18.83,7.1,26.84,9.66,37.94,10.67a140.1,140.1,0,0,0,26.32-.4c4.4-.42,6-.76,28.51-4.45,17.21-2.83,18.52-3,20.86-3.21a168.41,168.41,0,0,1,27-.23,185.93,185.93,0,0,1,21.32,2.78c2.29.42,6.33,1.16,11.43,2.4C334.66,250.7,348,258.1,354.3,262c1.6,1,4.85,3,4.67,3.36-.33.68-12.55-4.95-23.07-9.94a55.11,55.11,0,0,0-7.67-2.42c-4.64-1.09-9.75-1.64-22.12-.89-2,.12-7.86.7-19.53,1.85-9.48.94-13,1.33-18.08,2.18a181.67,181.67,0,0,0-20,4.57c-36.39,10.27-56.88,12.16-56.88,12.16C177.93,274,159,275.59,138.34,266a89.1,89.1,0,0,1-27.24-19.9A90.45,90.45,0,0,1,94.1,219.72Z" transform="translate(-90.58 -61.15)"/><path class="cls-1" d="M138.17,278.08" transform="translate(-90.58 -61.15)"/><line class="cls-1" x1="97.12" y1="182.11" x2="97.12" y2="182.11"/><path class="cls-2" d="M382.87,160.56" transform="translate(-90.58 -61.15)"/><path class="cls-1" d="M148,251.59" transform="translate(-90.58 -61.15)"/><path class="cls-1" d="M355.5,283.59" transform="translate(-90.58 -61.15)"/><path class="cls-1" d="M233.24,227.48" transform="translate(-90.58 -61.15)"/><path class="cls-1" d="M191.58,252.7" transform="translate(-90.58 -61.15)"/><path class="cls-1" d="M95.33,194.92" transform="translate(-90.58 -61.15)"/><path class="cls-1" d="M103.9,224.57" transform="translate(-90.58 -61.15)"/><path class="cls-1" d="M287.29,400.4" transform="translate(-90.58 -61.15)"/><path class="cls-1" d="M265.44,390.63" transform="translate(-90.58 -61.15)"/><path class="cls-1" d="M256.66,438.85" transform="translate(-90.58 -61.15)"/><path class="cls-1" d="M182.32,375.87" transform="translate(-90.58 -61.15)"/><path class="cls-1" d="M307,361.05" transform="translate(-90.58 -61.15)"/></g></svg>